<?xml version="1.0" encoding="utf-8"?>
<!-- Generator: Adobe Illustrator 22.1.0, SVG Export Plug-In . SVG Version: 6.00 Build 0)  -->
<svg version="1.1" id="Layer_1" xmlns="http://www.w3.org/2000/svg" xmlns:xlink="http://www.w3.org/1999/xlink" x="0px" y="0px"
	 viewBox="0 0 1200 630" style="enable-background:new 0 0 1200 630;" xml:space="preserve">
<style type="text/css">
	.st0{fill:#D1D3D4;}
	.st1{display:none;fill:#F2F2F2;}
	.st2{display:none;fill:none;}
	.st3{fill:#FFFFFF;}
	.st4{fill:#5C80D1;}
	.st5{fill:#757575;}
	.st6{font-family:'Poppins-Regular';}
	.st7{font-size:12px;}
	.st8{font-family:'Poppins-Bold';}
	.st9{font-size:18.3169px;}
	.st10{font-size:22.4243px;}
	.st11{font-size:30.3028px;}
</style>
<rect y="1.5" class="st0" width="1200" height="627"/>
<rect class="st1" width="1200" height="630"/>
<image style="display:none;overflow:visible;" width="991" height="765" xlink:href="87B86701.png"  transform="matrix(0.75 0 0 0.75 80.3333 6.3345)">
</image>
<path class="st2" d="M765.1,561.1H526.6c-14.9,0-27-12.1-27-27v-255c0-14.9,12.1-27,27-27h238.5c14.9,0,27,12.1,27,27v255
	C792.1,549,780,561.1,765.1,561.1z"/>
<g>
	
		<image style="overflow:visible;opacity:0.18;" width="1377" height="1883" xlink:href="87B86703.png"  transform="matrix(0.24 0 0 0.24 435.72 91.08)">
	</image>
	<g>
		<g>
			<path class="st3" d="M731.5,525.8H468.5c-10.3,0-18.7-8.4-18.7-18.7V229.8c0-10.3,8.4-18.7,18.7-18.7h262.9
				c10.3,0,18.7,8.4,18.7,18.7v277.3C750.1,517.5,741.8,525.8,731.5,525.8z"/>
			<path class="st3" d="M633.5,182.5h-174c-5.3,0-9.7-4.3-9.7-9.7v-13.3c0-5.3,4.3-9.7,9.7-9.7h174c5.3,0,9.7,4.3,9.7,9.7v13.3
				C643.2,178.2,638.9,182.5,633.5,182.5z"/>
			<path class="st4" d="M743.3,182.5h-83c-3.8,0-6.8-3.1-6.8-6.8v-19c0-3.8,3.1-6.8,6.8-6.8h83c3.8,0,6.8,3.1,6.8,6.8v19
				C750.1,179.4,747.1,182.5,743.3,182.5z"/>
			<text transform="matrix(1 0 0 1 465.6186 170.9062)" class="st5 st6 st7">Enter city name</text>
			<text transform="matrix(1 0 0 1 498.6186 451.5908)" class="st5 st6 st7">Humidity</text>
			<text transform="matrix(1 0 0 1 513.1188 483.5908)" class="st5 st6 st7">87%</text>
			<text transform="matrix(1 0 0 1 643.4521 483.5903)" class="st5 st6 st7">7.04 km/s</text>
			<text transform="matrix(1 0 0 1 658.6186 451.5909)" class="st5 st6 st7">Wind</text>
			<text transform="matrix(1 0 0 1 663.2853 170.9063)" class="st3 st6 st7">Get Weather</text>
			<text transform="matrix(1 0 0 1 568.1194 276.2922)" class="st8 st9">Nashik</text>
			<g>
				<text transform="matrix(1 0 0 1 524.1199 123.2937)" class="st8 st10">Weather App</text>
			</g>
			<text transform="matrix(1 0 0 1 570.3699 401.5906)" class="st8 st11">23°c</text>
			
				<image style="overflow:visible;" width="224" height="224" xlink:href="weather-app-img/images/clouds.png"  transform="matrix(0.2202 0 0 0.2202 576.1606 301.323)">
			</image>
		</g>
	</g>
</g>
</svg>
